# xmcd
#
# Track frame offsets:
#   150
#   11703
#   24816
#   36619
#   49639
#   61291
#   71964
#   86758
#   98032
#   108239
#   120882
#   134854
#   146435
#   159528
#
# Disc length: 2308 seconds
#
# Revision: 2
# Processed by: cddbd v1.5.2PL0 Copyright (c) Steve Scherf et al.
# Submitted via: Media_Universe 3.0
#
DISCID=bf09020e
DTITLE=Chuck Berry - Chuck Berry - Greatest Hits 
DYEAR=2010
DGENRE=Rock'n'Roll
TTITLE0=Chuck Berry - Sweet little Rock And Roller
TTITLE1=Chuck Berry - Jonny B Good
TTITLE2=Chuck Berry - Oh Baby Doll
TTITLE3=Chuck Berry - Too Much Money Business
TTITLE4=Chuck Berry - Together (We'll always be)
TTITLE5=Chuck Berry - Guitar Boogie
TTITLE6=Chuck Berry - Reelin' and Rockin'
TTITLE7=Chuck Berry - Ingo
TTITLE8=Chuck Berry - Deep Feeling
TTITLE9=Chuck Berry - Roly Poly
TTITLE10=Chuck Berry - Havana Moon
TTITLE11=Chuck Berry - Rock and Roll Music
TTITLE12=Chuck Berry - No Money Down
TTITLE13=Chuck Berry - Jo Jo Gun
EXTD=
EXTT0=
EXTT1=
EXTT2=
EXTT3=
EXTT4=
EXTT5=
EXTT6=
EXTT7=
EXTT8=
EXTT9=
EXTT10=
EXTT11=
EXTT12=
EXTT13=
PLAYORDER=
